<svg width="130" height="30" viewBox="0 0 130 30" fill="none" xmlns="http://www.w3.org/2000/svg">
<g clip-path="url(#clip0_1_4)">
<path d="M84.2106 10.698C82.0226 8.7636 79.3809 7.818 76.3272 7.818C73.3151 7.818 70.6734 8.7648 68.4842 10.698C66.2963 12.5904 65.184 15.2244 65.184 18.5988C65.184 21.9732 66.2963 24.6048 68.4842 26.5392C70.6722 28.4316 73.3151 29.3784 76.3272 29.3784C79.3809 29.3784 82.0226 28.4316 84.2106 26.5392C86.4402 24.6048 87.5525 21.972 87.5525 18.5988C87.5525 15.2256 86.439 12.5904 84.2106 10.698ZM72.2015 22.9176C71.0475 21.8076 70.4661 20.3664 70.4661 18.5976C70.4661 16.8288 71.0425 15.3888 72.2015 14.3184C72.7389 13.7846 73.3817 13.3635 74.0908 13.0807C74.7998 12.7978 75.5603 12.6592 76.3259 12.6732C77.098 12.659 77.865 12.7975 78.581 13.0801C79.2971 13.3628 79.9475 13.784 80.4933 14.3184C81.6878 15.3888 82.2691 16.8276 82.2691 18.5976C82.2691 20.3676 81.6927 21.8064 80.4933 22.9176C79.3392 23.9868 77.935 24.522 76.3259 24.522C75.5643 24.5339 74.8078 24.3982 74.1 24.1229C73.3921 23.8475 72.7469 23.4379 72.2015 22.9176ZM95.3574 28.8012V0.5676H90.1574V28.8012H95.3574ZM112.141 8.394V19.6596C112.141 22.374 110.669 24.174 107.868 24.174C105.019 24.174 103.587 22.3764 103.587 19.6596V8.394H98.3769V20.5236C98.3769 25.2228 101.348 29.3772 107.868 29.3772H107.909C114.388 29.3772 117.354 25.1304 117.354 20.5236V8.394H112.141ZM59.6504 8.394L54.4504 22.218L49.2504 8.394H43.7205L52.0184 28.8024H56.8897L65.1864 8.394H59.6504ZM43.745 18.0216C43.745 15.06 42.797 12.6324 40.939 10.698C39.0809 8.7636 36.6907 7.818 33.7595 7.818C30.7475 7.818 28.1867 8.8476 26.0822 10.8624C24.0169 12.8796 22.9879 15.4296 22.9879 18.5976C22.9879 21.7656 24.0193 24.3588 26.0417 26.3736C28.107 28.3908 30.5831 29.3772 33.513 29.3772C38.014 29.3772 41.1904 27.402 43.1269 23.4108L39.249 21.1884C37.9723 23.6976 36.1118 24.9324 33.5952 24.9324C30.5009 24.9324 28.313 22.9572 27.9819 19.8312H43.7438V18.0204L43.745 18.0216ZM33.5915 11.7672C36.5214 11.7672 38.4628 13.4124 38.9571 16.0464H27.9794C28.7656 13.6188 30.9093 11.7672 33.5927 11.7672H33.5915ZM22.9867 28.8012L16.0096 16.6236C20.4235 15.0192 22.6114 12.222 22.6114 8.148C22.6163 3.1692 18.6513 0 12.3377 0H0V28.8012H5.44774V17.1168H10.0713L16.7553 28.8024L22.9867 28.8012ZM12.3377 4.7724C15.5571 4.7724 17.1674 6.048 17.1674 8.5572C17.1674 11.0664 15.5558 12.342 12.3377 12.342H5.44774V4.7724H12.3377ZM126.17 29.3772C122.823 29.3772 120.109 26.67 120.109 23.3292V2.88H125.309V8.4012H129.768V12.5976H125.309V22.9956C125.309 23.9748 126.105 24.768 127.088 24.768H129.768V29.3772H126.17Z" fill="#191C1F"/>
</g>
<defs>
<clipPath id="clip0_1_4">
<rect width="130" height="30" fill="white"/>
</clipPath>
</defs>
</svg>
